<svg xmlns="http://www.w3.org/2000/svg" width="77.292" height="26.167" viewBox="0 0 77.292 26.167">
  <g id="Group_2" data-name="Group 2" transform="translate(-278 -74)">
    <g id="FYXO-LOGO-MAIN-01" transform="translate(278 74)">
      <rect id="Rectangle_1" data-name="Rectangle 1" width="2.81" height="2.81" transform="translate(0.002 11.54)" fill="#f42a4d"/>
      <rect id="Rectangle_2" data-name="Rectangle 2" width="2.531" height="18.62" transform="translate(0 2.531) rotate(-90)" fill="#fff"/>
      <rect id="Rectangle_3" data-name="Rectangle 3" width="2.81" height="10.283" transform="translate(5.621 14.349) rotate(-90)" fill="#fff"/>
      <rect id="Rectangle_4" data-name="Rectangle 4" width="2.631" height="8.73" transform="translate(0 0)" fill="#fff"/>
      <rect id="Rectangle_5" data-name="Rectangle 5" width="2.81" height="9.008" transform="translate(0.002 17.159)" fill="#fff"/>
      <path id="Path_1" data-name="Path 1" d="M5207.205,25.945l-8.39-11.508-8.356,11.508h-3.16l9.876-13.454L5187.93-.22h3.157l7.838,10.691,7.8-10.691h2.963l-9.209,12.636,9.921,13.529Z" transform="translate(-5162.037 0.22)" fill="#f42a4d"/>
      <path id="Path_2" data-name="Path 2" d="M10266.8,12.9c0-7.494,5.793-13.076,13.664-13.076,7.8,0,13.63,5.545,13.63,13.076s-5.829,13.07-13.629,13.07C10272.592,25.966,10266.8,20.386,10266.8,12.9Zm24.546,0a10.473,10.473,0,0,0-10.882-10.652c-6.272,0-10.954,4.517-10.954,10.652s4.682,10.649,10.954,10.649A10.473,10.473,0,0,0,10291.345,12.9Z" transform="translate(-10216.801 0.18)" fill="#fff"/>
      <path id="Path_3" data-name="Path 3" d="M4321.513,14.437l-8.355,11.508H4310l9.882-13.454L4310.634-.22h3.157l7.838,10.691,7.8-10.691h2.972l-9.214,12.636" transform="translate(-4289.01 0.22)" fill="#fff"/>
    </g>
  </g>
</svg>
