<svg xmlns="http://www.w3.org/2000/svg" width="18.399" height="18.399" viewBox="0 0 18.399 18.399">
  <path id="bx-support" d="M12.2,3A9.21,9.21,0,0,0,3,12.2v3.811a1.779,1.779,0,0,0,1.84,1.709h.92a.92.92,0,0,0,.92-.92V12.068a.92.92,0,0,0-.92-.92H4.925a7.349,7.349,0,0,1,14.55,0h-.835a.92.92,0,0,0-.92.92v5.651a1.841,1.841,0,0,1-1.84,1.84h-1.84v-.92H10.36V21.4h5.52a3.684,3.684,0,0,0,3.68-3.68,1.779,1.779,0,0,0,1.84-1.708V12.2A9.21,9.21,0,0,0,12.2,3Z" transform="translate(-3 -3)" fill="#fff"/>
</svg>
