<svg xmlns="http://www.w3.org/2000/svg" width="18.778" height="18.757" viewBox="0 0 18.778 18.757">
  <g id="megaphone" transform="matrix(0.914, -0.407, 0.407, 0.914, -1.301, 6.565)">
    <path id="Path_16" data-name="Path 16" d="M3.206,0a3.206,3.206,0,1,0,0,6.411.582.582,0,0,0,.574-.493h.009V.583A.583.583,0,0,0,3.205,0Z" transform="translate(0 3.2)" fill="#1f385d"/>
    <path id="Path_17" data-name="Path 17" d="M11.281.583A.583.583,0,0,0,10.7,0a.577.577,0,0,0-.353.122L5.211,3.086H.583A.583.583,0,0,0,0,3.669V9.206H.007a.582.582,0,0,0,.576.511H4.69l5.613,3.24a.582.582,0,0,0,.979-.427.574.574,0,0,0-.007-.064h.007V.617h0c0-.011,0-.022,0-.034Z" transform="translate(4.859 0)" fill="#1f385d"/>
    <path id="Path_18" data-name="Path 18" d="M4.3,3.368l-.008-.014c0-.005,0-.011-.007-.015l-.01-.014L2.49.238l-.007,0a.579.579,0,0,0-.4-.235V0H.535V0A.581.581,0,0,0,.078.875.517.517,0,0,0,.125.94l-.007,0,2.076,3.6h0l.021.036,0,0a.582.582,0,0,0,.772.179.639.639,0,0,0,.086-.061l.005.009,1.069-.617,0-.008A.581.581,0,0,0,4.3,3.368h0Z" transform="translate(5.106 10.787)" fill="#1f385d"/>
  </g>
</svg>
